<mxfile host="www.draw.io" modified="2020-01-29T05:17:34.782Z" agent="Mozilla/5.0 (X11; Linux x86_64) AppleWebKit/537.36 (KHTML, like Gecko) Chrome/79.0.3945.130 Safari/537.36" etag="GQsbPFWE_BENWqQf6hbE" version="12.6.1" type="github">
  <diagram id="Ng7LAsaa8HlqOdIinsJJ" name="Page-1">
    <mxGraphModel dx="1662" dy="1040" grid="1" gridSize="10" guides="1" tooltips="1" connect="1" arrows="1" fold="1" page="1" pageScale="1" pageWidth="850" pageHeight="1100" math="0" shadow="0">
      <root>
        <mxCell id="0"/>
        <mxCell id="1" parent="0"/>
        <mxCell id="fvFL_eqJFKdYP7PaVMdL-13" style="edgeStyle=orthogonalEdgeStyle;rounded=0;orthogonalLoop=1;jettySize=auto;html=1;entryX=0;entryY=0.5;entryDx=0;entryDy=0;exitX=0.5;exitY=1;exitDx=0;exitDy=0;" parent="1" source="fvFL_eqJFKdYP7PaVMdL-1" target="fvFL_eqJFKdYP7PaVMdL-14" edge="1">
          <mxGeometry relative="1" as="geometry">
            <mxPoint x="240" y="610" as="sourcePoint"/>
            <mxPoint x="310" y="610" as="targetPoint"/>
          </mxGeometry>
        </mxCell>
        <mxCell id="fvFL_eqJFKdYP7PaVMdL-1" value="Display&amp;nbsp; one" style="whiteSpace=wrap;html=1;aspect=fixed;" parent="1" vertex="1">
          <mxGeometry x="200" y="480" width="80" height="80" as="geometry"/>
        </mxCell>
        <mxCell id="fvFL_eqJFKdYP7PaVMdL-7" style="edgeStyle=orthogonalEdgeStyle;rounded=0;orthogonalLoop=1;jettySize=auto;html=1;" parent="1" source="fvFL_eqJFKdYP7PaVMdL-2" target="fvFL_eqJFKdYP7PaVMdL-3" edge="1">
          <mxGeometry relative="1" as="geometry"/>
        </mxCell>
        <mxCell id="fvFL_eqJFKdYP7PaVMdL-2" value="Init" style="whiteSpace=wrap;html=1;aspect=fixed;" parent="1" vertex="1">
          <mxGeometry x="310" width="80" height="80" as="geometry"/>
        </mxCell>
        <mxCell id="fvFL_eqJFKdYP7PaVMdL-6" style="edgeStyle=orthogonalEdgeStyle;rounded=0;orthogonalLoop=1;jettySize=auto;html=1;" parent="1" source="fvFL_eqJFKdYP7PaVMdL-3" edge="1">
          <mxGeometry relative="1" as="geometry">
            <mxPoint x="350" y="230" as="targetPoint"/>
          </mxGeometry>
        </mxCell>
        <mxCell id="fvFL_eqJFKdYP7PaVMdL-3" value="Startup count" style="whiteSpace=wrap;html=1;aspect=fixed;" parent="1" vertex="1">
          <mxGeometry x="310" y="110" width="80" height="80" as="geometry"/>
        </mxCell>
        <mxCell id="fvFL_eqJFKdYP7PaVMdL-12" style="edgeStyle=orthogonalEdgeStyle;rounded=0;orthogonalLoop=1;jettySize=auto;html=1;exitX=0.5;exitY=1;exitDx=0;exitDy=0;entryX=1;entryY=0.5;entryDx=0;entryDy=0;" parent="1" source="fvFL_eqJFKdYP7PaVMdL-4" target="fvFL_eqJFKdYP7PaVMdL-14" edge="1">
          <mxGeometry relative="1" as="geometry">
            <mxPoint x="390" y="610" as="targetPoint"/>
          </mxGeometry>
        </mxCell>
        <mxCell id="fvFL_eqJFKdYP7PaVMdL-4" value="Display two" style="whiteSpace=wrap;html=1;aspect=fixed;" parent="1" vertex="1">
          <mxGeometry x="430" y="480" width="80" height="80" as="geometry"/>
        </mxCell>
        <mxCell id="fvFL_eqJFKdYP7PaVMdL-8" style="edgeStyle=orthogonalEdgeStyle;rounded=0;orthogonalLoop=1;jettySize=auto;html=1;exitX=1;exitY=0.5;exitDx=0;exitDy=0;entryX=0.5;entryY=0;entryDx=0;entryDy=0;" parent="1" source="fvFL_eqJFKdYP7PaVMdL-5" target="fvFL_eqJFKdYP7PaVMdL-4" edge="1">
          <mxGeometry relative="1" as="geometry"/>
        </mxCell>
        <mxCell id="fvFL_eqJFKdYP7PaVMdL-9" style="edgeStyle=orthogonalEdgeStyle;rounded=0;orthogonalLoop=1;jettySize=auto;html=1;exitX=0;exitY=0.5;exitDx=0;exitDy=0;entryX=0.5;entryY=0;entryDx=0;entryDy=0;" parent="1" source="fvFL_eqJFKdYP7PaVMdL-5" target="fvFL_eqJFKdYP7PaVMdL-1" edge="1">
          <mxGeometry relative="1" as="geometry"/>
        </mxCell>
        <mxCell id="fvFL_eqJFKdYP7PaVMdL-5" value="Buttons pressed&lt;br&gt;Select display mode" style="rhombus;whiteSpace=wrap;html=1;" parent="1" vertex="1">
          <mxGeometry x="280" y="350" width="140" height="110" as="geometry"/>
        </mxCell>
        <mxCell id="fvFL_eqJFKdYP7PaVMdL-16" style="edgeStyle=orthogonalEdgeStyle;rounded=0;orthogonalLoop=1;jettySize=auto;html=1;" parent="1" source="fvFL_eqJFKdYP7PaVMdL-14" target="fvFL_eqJFKdYP7PaVMdL-15" edge="1">
          <mxGeometry relative="1" as="geometry"/>
        </mxCell>
        <mxCell id="fvFL_eqJFKdYP7PaVMdL-14" value="" style="rhombus;whiteSpace=wrap;html=1;" parent="1" vertex="1">
          <mxGeometry x="300" y="580" width="120" height="80" as="geometry"/>
        </mxCell>
        <mxCell id="fvFL_eqJFKdYP7PaVMdL-17" style="edgeStyle=orthogonalEdgeStyle;rounded=0;orthogonalLoop=1;jettySize=auto;html=1;exitX=1;exitY=0.5;exitDx=0;exitDy=0;entryX=1;entryY=0.5;entryDx=0;entryDy=0;" parent="1" source="fvFL_eqJFKdYP7PaVMdL-15" target="fvFL_eqJFKdYP7PaVMdL-19" edge="1">
          <mxGeometry relative="1" as="geometry">
            <mxPoint x="580" y="290" as="targetPoint"/>
            <Array as="points">
              <mxPoint x="570" y="770"/>
              <mxPoint x="570" y="270"/>
            </Array>
          </mxGeometry>
        </mxCell>
        <mxCell id="fvFL_eqJFKdYP7PaVMdL-15" value="&lt;blockquote style=&quot;margin: 0 0 0 40px ; border: none ; padding: 0px&quot;&gt;Do some storage of values.&lt;br&gt;Reset counters&lt;/blockquote&gt;" style="whiteSpace=wrap;html=1;align=left;" parent="1" vertex="1">
          <mxGeometry x="250" y="730" width="220" height="80" as="geometry"/>
        </mxCell>
        <mxCell id="fvFL_eqJFKdYP7PaVMdL-20" style="edgeStyle=orthogonalEdgeStyle;rounded=0;orthogonalLoop=1;jettySize=auto;html=1;" parent="1" source="fvFL_eqJFKdYP7PaVMdL-19" target="fvFL_eqJFKdYP7PaVMdL-5" edge="1">
          <mxGeometry relative="1" as="geometry"/>
        </mxCell>
        <mxCell id="fvFL_eqJFKdYP7PaVMdL-19" value="main loop" style="rhombus;whiteSpace=wrap;html=1;" parent="1" vertex="1">
          <mxGeometry x="280" y="230" width="140" height="80" as="geometry"/>
        </mxCell>
        <mxCell id="fvFL_eqJFKdYP7PaVMdL-21" value="Very simple flow chart for kGeigieStickC&lt;br&gt;&lt;br&gt;Rob Oudendijk&lt;br&gt;01/29/2020&lt;br&gt;" style="text;html=1;strokeColor=none;fillColor=none;align=left;verticalAlign=middle;whiteSpace=wrap;rounded=0;" parent="1" vertex="1">
          <mxGeometry x="610" y="890" width="190" height="90" as="geometry"/>
        </mxCell>
      </root>
    </mxGraphModel>
  </diagram>
</mxfile>
